# xmcd
#
# Track frame offsets: 
#        150
#        13010
#        29107
#        43632
#        59341
#        74776
#        87978
#        104788
#        119454
#        132453
#
# Disc length: 2039 seconds
#
# Revision: 0
# Processed by: cddbd v1.5.2PL0 Copyright (c) Steve Scherf et al.
# Submitted via: ExactAudioCopy v0.99pb4
#
DISCID=9d07f50a
DTITLE=Various Artist - Further Down the Road, Vol. 50
DYEAR=1998
DGENRE=Corporate Country
TTITLE0=Asleep at the Wheel - (Get Your Kicks on) Route 66
TTITLE1=Tanya Tucker - My Arms Stay Open All Night
TTITLE2=Emilio - Life is Good
TTITLE3=Suzy Bogguss - Somebody to Love
TTITLE4=Deana Carter - Count Me In
TTITLE5=The Ranch - Walkin' the Country
TTITLE6=Confederate Railroad - Daddy Never Was the Cadillac Kind
TTITLE7=Trace Adkins - Nothin' But Taillights
TTITLE8=River Road - Nickajack
TTITLE9=John Berry - Thunder Road
EXTD=
EXTT0=
EXTT1=
EXTT2=
EXTT3=
EXTT4=
EXTT5=
EXTT6=
EXTT7=
EXTT8=
EXTT9=
PLAYORDER=
